<mxfile host="app.diagrams.net" agent="Mozilla/5.0 (Macintosh; Intel Mac OS X 10_15_7) AppleWebKit/537.36 (KHTML, like Gecko) Chrome/134.0.0.0 Safari/537.36" version="26.1.0">
  <diagram name="Page-1" id="pP9h1Q98HsV_1OaQe5Py">
    <mxGraphModel dx="2385" dy="547" grid="1" gridSize="10" guides="1" tooltips="1" connect="1" arrows="1" fold="1" page="1" pageScale="1" pageWidth="827" pageHeight="1169" math="0" shadow="0">
      <root>
        <mxCell id="0" />
        <mxCell id="1" parent="0" />
        <mxCell id="p5CaKa_BU4Tz4ObAfD1s-45" value="" style="rounded=1;whiteSpace=wrap;html=1;" vertex="1" parent="1">
          <mxGeometry x="-77" y="555" width="1267" height="715" as="geometry" />
        </mxCell>
        <mxCell id="p5CaKa_BU4Tz4ObAfD1s-46" value="AssetPlanning" style="text;html=1;align=center;verticalAlign=middle;resizable=0;points=[];autosize=1;strokeColor=none;fillColor=none;" vertex="1" parent="1">
          <mxGeometry x="408" y="962.5" width="100" height="30" as="geometry" />
        </mxCell>
        <mxCell id="p5CaKa_BU4Tz4ObAfD1s-47" value="OldConsumer" style="rounded=0;whiteSpace=wrap;html=1;" vertex="1" parent="1">
          <mxGeometry x="350" y="1007.5" width="90" height="40" as="geometry" />
        </mxCell>
        <mxCell id="p5CaKa_BU4Tz4ObAfD1s-48" value="NewConsumer" style="rounded=0;whiteSpace=wrap;html=1;" vertex="1" parent="1">
          <mxGeometry x="466" y="1007.5" width="94" height="40" as="geometry" />
        </mxCell>
        <mxCell id="p5CaKa_BU4Tz4ObAfD1s-49" value="AssetService" style="text;html=1;align=center;verticalAlign=middle;resizable=0;points=[];autosize=1;strokeColor=none;fillColor=none;" vertex="1" parent="1">
          <mxGeometry x="408" y="802.5" width="90" height="30" as="geometry" />
        </mxCell>
        <mxCell id="p5CaKa_BU4Tz4ObAfD1s-50" style="edgeStyle=orthogonalEdgeStyle;rounded=0;orthogonalLoop=1;jettySize=auto;html=1;entryX=0.5;entryY=0;entryDx=0;entryDy=0;" edge="1" parent="1" source="p5CaKa_BU4Tz4ObAfD1s-51" target="p5CaKa_BU4Tz4ObAfD1s-47">
          <mxGeometry relative="1" as="geometry" />
        </mxCell>
        <mxCell id="p5CaKa_BU4Tz4ObAfD1s-51" value="OldProducer" style="rounded=0;whiteSpace=wrap;html=1;" vertex="1" parent="1">
          <mxGeometry x="413" y="842.5" width="80" height="40" as="geometry" />
        </mxCell>
        <mxCell id="p5CaKa_BU4Tz4ObAfD1s-52" value="AssetPlanning" style="text;html=1;align=center;verticalAlign=middle;resizable=0;points=[];autosize=1;strokeColor=none;fillColor=none;" vertex="1" parent="1">
          <mxGeometry x="668" y="962.5" width="100" height="30" as="geometry" />
        </mxCell>
        <mxCell id="p5CaKa_BU4Tz4ObAfD1s-53" value="OldConsumer" style="rounded=0;whiteSpace=wrap;html=1;" vertex="1" parent="1">
          <mxGeometry x="610" y="1007.5" width="90" height="40" as="geometry" />
        </mxCell>
        <mxCell id="p5CaKa_BU4Tz4ObAfD1s-54" value="NewConsumer" style="rounded=0;whiteSpace=wrap;html=1;" vertex="1" parent="1">
          <mxGeometry x="726" y="1007.5" width="94" height="40" as="geometry" />
        </mxCell>
        <mxCell id="p5CaKa_BU4Tz4ObAfD1s-55" value="AssetService" style="text;html=1;align=center;verticalAlign=middle;resizable=0;points=[];autosize=1;strokeColor=none;fillColor=none;" vertex="1" parent="1">
          <mxGeometry x="668" y="802.5" width="90" height="30" as="geometry" />
        </mxCell>
        <mxCell id="p5CaKa_BU4Tz4ObAfD1s-56" style="edgeStyle=orthogonalEdgeStyle;rounded=0;orthogonalLoop=1;jettySize=auto;html=1;entryX=0.5;entryY=0;entryDx=0;entryDy=0;" edge="1" parent="1" source="p5CaKa_BU4Tz4ObAfD1s-57" target="p5CaKa_BU4Tz4ObAfD1s-54">
          <mxGeometry relative="1" as="geometry" />
        </mxCell>
        <mxCell id="p5CaKa_BU4Tz4ObAfD1s-57" value="NewProducer*" style="rounded=0;whiteSpace=wrap;html=1;" vertex="1" parent="1">
          <mxGeometry x="673" y="842.5" width="87" height="40" as="geometry" />
        </mxCell>
        <mxCell id="p5CaKa_BU4Tz4ObAfD1s-58" value="AssetPlanning" style="text;html=1;align=center;verticalAlign=middle;resizable=0;points=[];autosize=1;strokeColor=none;fillColor=none;" vertex="1" parent="1">
          <mxGeometry x="878" y="962.5" width="100" height="30" as="geometry" />
        </mxCell>
        <mxCell id="p5CaKa_BU4Tz4ObAfD1s-59" value="NewConsumer" style="rounded=0;whiteSpace=wrap;html=1;" vertex="1" parent="1">
          <mxGeometry x="936" y="1007.5" width="94" height="40" as="geometry" />
        </mxCell>
        <mxCell id="p5CaKa_BU4Tz4ObAfD1s-60" value="AssetService" style="text;html=1;align=center;verticalAlign=middle;resizable=0;points=[];autosize=1;strokeColor=none;fillColor=none;" vertex="1" parent="1">
          <mxGeometry x="878" y="802.5" width="90" height="30" as="geometry" />
        </mxCell>
        <mxCell id="p5CaKa_BU4Tz4ObAfD1s-61" style="edgeStyle=orthogonalEdgeStyle;rounded=0;orthogonalLoop=1;jettySize=auto;html=1;entryX=0.5;entryY=0;entryDx=0;entryDy=0;" edge="1" parent="1" source="p5CaKa_BU4Tz4ObAfD1s-62" target="p5CaKa_BU4Tz4ObAfD1s-59">
          <mxGeometry relative="1" as="geometry" />
        </mxCell>
        <mxCell id="p5CaKa_BU4Tz4ObAfD1s-62" value="NewProducer*" style="rounded=0;whiteSpace=wrap;html=1;" vertex="1" parent="1">
          <mxGeometry x="883" y="842.5" width="87" height="37.5" as="geometry" />
        </mxCell>
        <mxCell id="p5CaKa_BU4Tz4ObAfD1s-63" value="" style="endArrow=none;dashed=1;html=1;dashPattern=1 3;strokeWidth=2;rounded=0;" edge="1" parent="1">
          <mxGeometry width="50" height="50" relative="1" as="geometry">
            <mxPoint x="580" y="1072.5" as="sourcePoint" />
            <mxPoint x="580" y="762.5" as="targetPoint" />
          </mxGeometry>
        </mxCell>
        <mxCell id="p5CaKa_BU4Tz4ObAfD1s-64" value="" style="endArrow=none;dashed=1;html=1;dashPattern=1 3;strokeWidth=2;rounded=0;" edge="1" parent="1">
          <mxGeometry width="50" height="50" relative="1" as="geometry">
            <mxPoint x="860" y="1062.5" as="sourcePoint" />
            <mxPoint x="860" y="752.5" as="targetPoint" />
          </mxGeometry>
        </mxCell>
        <mxCell id="p5CaKa_BU4Tz4ObAfD1s-65" value="AssetPlanning" style="text;html=1;align=center;verticalAlign=middle;resizable=0;points=[];autosize=1;strokeColor=none;fillColor=none;" vertex="1" parent="1">
          <mxGeometry x="168" y="962.5" width="100" height="30" as="geometry" />
        </mxCell>
        <mxCell id="p5CaKa_BU4Tz4ObAfD1s-66" value="OldConsumer" style="rounded=0;whiteSpace=wrap;html=1;" vertex="1" parent="1">
          <mxGeometry x="110" y="1007.5" width="90" height="40" as="geometry" />
        </mxCell>
        <mxCell id="p5CaKa_BU4Tz4ObAfD1s-67" value="AssetService" style="text;html=1;align=center;verticalAlign=middle;resizable=0;points=[];autosize=1;strokeColor=none;fillColor=none;" vertex="1" parent="1">
          <mxGeometry x="168" y="802.5" width="90" height="30" as="geometry" />
        </mxCell>
        <mxCell id="p5CaKa_BU4Tz4ObAfD1s-68" style="edgeStyle=orthogonalEdgeStyle;rounded=0;orthogonalLoop=1;jettySize=auto;html=1;entryX=0.5;entryY=0;entryDx=0;entryDy=0;" edge="1" parent="1" source="p5CaKa_BU4Tz4ObAfD1s-69" target="p5CaKa_BU4Tz4ObAfD1s-66">
          <mxGeometry relative="1" as="geometry" />
        </mxCell>
        <mxCell id="p5CaKa_BU4Tz4ObAfD1s-69" value="OldProducer" style="rounded=0;whiteSpace=wrap;html=1;" vertex="1" parent="1">
          <mxGeometry x="173" y="842.5" width="80" height="40" as="geometry" />
        </mxCell>
        <mxCell id="p5CaKa_BU4Tz4ObAfD1s-70" value="" style="endArrow=none;dashed=1;html=1;dashPattern=1 3;strokeWidth=2;rounded=0;" edge="1" parent="1">
          <mxGeometry width="50" height="50" relative="1" as="geometry">
            <mxPoint x="300" y="1072.5" as="sourcePoint" />
            <mxPoint x="300" y="762.5" as="targetPoint" />
          </mxGeometry>
        </mxCell>
        <mxCell id="p5CaKa_BU4Tz4ObAfD1s-71" value="Step 1" style="text;html=1;align=center;verticalAlign=middle;whiteSpace=wrap;rounded=0;" vertex="1" parent="1">
          <mxGeometry x="183" y="752.5" width="60" height="30" as="geometry" />
        </mxCell>
        <mxCell id="p5CaKa_BU4Tz4ObAfD1s-72" value="Step 2" style="text;html=1;align=center;verticalAlign=middle;whiteSpace=wrap;rounded=0;" vertex="1" parent="1">
          <mxGeometry x="423" y="752.5" width="60" height="30" as="geometry" />
        </mxCell>
        <mxCell id="p5CaKa_BU4Tz4ObAfD1s-73" value="Step 3" style="text;html=1;align=center;verticalAlign=middle;whiteSpace=wrap;rounded=0;" vertex="1" parent="1">
          <mxGeometry x="693" y="752.5" width="60" height="30" as="geometry" />
        </mxCell>
        <mxCell id="p5CaKa_BU4Tz4ObAfD1s-74" value="Step 4" style="text;html=1;align=center;verticalAlign=middle;whiteSpace=wrap;rounded=0;" vertex="1" parent="1">
          <mxGeometry x="918" y="752.5" width="60" height="30" as="geometry" />
        </mxCell>
        <mxCell id="p5CaKa_BU4Tz4ObAfD1s-76" value="NewProducer* publishes messages with different MassTransit &quot;messageType&quot; (C# full&amp;nbsp;type name including namespace)" style="text;html=1;align=center;verticalAlign=middle;whiteSpace=wrap;rounded=0;" vertex="1" parent="1">
          <mxGeometry x="183" y="1090" width="784" height="30" as="geometry" />
        </mxCell>
      </root>
    </mxGraphModel>
  </diagram>
</mxfile>
